<ttFont>
<head>
    <!-- Most of this table will be recalculated by the compiler -->
    <tableVersion value="1.0"/>
    <fontRevision value="1.0"/>
    <checkSumAdjustment value="0x492e8d7c"/>
    <magicNumber value="0x5f0f3cf5"/>
    <flags value="00000000 00001011"/>
    <!-- <unitsPerEm value="2048"/> -->
    <unitsPerEm value="1000"/>
    <!-- <unitsPerEm value="512"/> -->
    <!-- <unitsPerEm value="256"/> -->
    <created value="Sun Feb 10 21:02:28 2019"/>
    <modified value="Sun Feb 10 21:02:28 2019"/>
    <xMin value="0"/>
    <yMin value="0"/>
    <xMax value="0"/>
    <yMax value="0"/>
    <macStyle value="00000000 00000000"/>
    <lowestRecPPEM value="8"/>
    <fontDirectionHint value="2"/>
    <indexToLocFormat value="0"/>
    <glyphDataFormat value="0"/>
  </head>
          <CharString index="0">
            7 -6 12 -6 11 0 8 0 7 0 8 2 rrcurveto
            return
          </CharString>
          <CharString index="1">
            -11 -8 -10 -11 -11 8 -9 11 11 9 9 11 hvcurveto
            11 -9 10 -11 vhcurveto
            return
          </CharString>
          <CharString index="2">
            -11 -9 -10 -11 -11 9 -9 11 11 9 9 11 hvcurveto
            11 -9 10 -11 vhcurveto
            return
          </CharString>
          <CharString index="3">
            -138.07129 111.92871 -111.92871 138.07129 138.07129 111.92871 111.92871 138.07129 138.07129 -111.92871 111.92871 -138.07129 -138.07129 -111.92871 -111.92871 -138.07129 vhcurveto
            return
          </CharString>
          <CharString index="4">
          -12 12 12 vlineto
            return
         
          </CharString>
          <CharString index="5">
          -6 12 6 vlineto
          return
                                        <!-- -6 6 6 vlineto
            -6 vmoveto
            -6 6 6 vlineto
            6 vmoveto
            return -->

          </CharString>
          <CharString index="6">

          -3 12 3 vlineto

                                    <!-- 3 -4 rmoveto
            1 1 4 -1 1 -4 -1 -1 -4 1 -1 hlineto
            9 8 rmoveto -->
           
          return
          </CharString>
          <CharString index="7">
            -6 12 6 vlineto

                                    <!-- -12 12 12 vlineto -->
            return
          </CharString>
        <CharString name=".notdef">
         800 vmoveto
          endchar
        </CharString>
        <CharString name="A">
          800 vmoveto
          endchar
        </CharString>
        <CharString name="B">
          800 vmoveto
          endchar
        </CharString>
        <CharString name="C">
          800 vmoveto
          endchar
        </CharString>
        <CharString name="D">
          800 vmoveto
          endchar
        </CharString>
        <CharString name="E">
          800 vmoveto
          endchar
        </CharString>
        <CharString name="F">
          800 vmoveto
          endchar
        </CharString>
        <CharString name="G">
          800 vmoveto
          endchar
        </CharString>
        <CharString name="H">
          800 vmoveto
          endchar
        </CharString>
        <CharString name="I">
          800 vmoveto
          endchar
        </CharString>
        <CharString name="J">
          800 vmoveto
          endchar
        </CharString>
        <CharString name="K">
          800 vmoveto
          endchar
        </CharString>
        <CharString name="L">
          800 vmoveto
          endchar
        </CharString>
        <CharString name="M">
          800 vmoveto
          endchar
        </CharString>
        <CharString name="N">
          800 vmoveto
          endchar
        </CharString>
        <CharString name="O">
          800 vmoveto
          endchar
        </CharString>
        <CharString name="P">
          800 vmoveto
          endchar
        </CharString>
        <CharString name="Q">
          800 vmoveto
          endchar
        </CharString>
        <CharString name="R">
          800 vmoveto
          endchar
        </CharString>
        <CharString name="S">
          800 vmoveto
          endchar
        </CharString>
        <CharString name="T">
          800 vmoveto
          endchar
        </CharString>
        <CharString name="U">
          800 vmoveto
          endchar
        </CharString>
        <CharString name="V">
          800 vmoveto
          endchar
        </CharString>
        <CharString name="W">
          800 vmoveto
          endchar
        </CharString>
        <CharString name="X">
          800 vmoveto
          endchar
        </CharString>
        <CharString name="Y">
          800 vmoveto
          endchar
        </CharString>
        <CharString name="Z">
          800 vmoveto
          endchar
        </CharString>
        <CharString name="a">
          800 vmoveto
          endchar
        </CharString>
        <CharString name="ampersand">
          800 vmoveto
          endchar
        </CharString>
        <CharString name="asciicircum">
          800 vmoveto
          endchar
        </CharString>
        <CharString name="asciitilde">
          800 vmoveto
          endchar
        </CharString>
        <CharString name="asterisk">
          800 vmoveto
          endchar
        </CharString>
        <CharString name="at">
          800 vmoveto
          endchar
        </CharString>
        <CharString name="b">
          800 vmoveto
          endchar
        </CharString>
        <CharString name="backslash">
          800 vmoveto
          endchar
        </CharString>
        <CharString name="bar">
          800 vmoveto
          endchar
        </CharString>
        <CharString name="blank">
          0 800 vmoveto
          endchar
        </CharString>
        <CharString name="braceleft">
          800 vmoveto
          endchar
        </CharString>
        <CharString name="braceright">
          800 vmoveto
          endchar
        </CharString>
        <CharString name="bracketleft">
          800 vmoveto
          endchar
        </CharString>
        <CharString name="bracketright">
          800 vmoveto
          endchar
        </CharString>
        <CharString name="c">
          800 vmoveto
          endchar
        </CharString>
        <CharString name="colon">
          800 vmoveto
          endchar
        </CharString>
        <CharString name="comma">
          800 vmoveto
          endchar
        </CharString>
        <CharString name="d">
          800 vmoveto
          endchar
        </CharString>
        <CharString name="dollar">
          800 vmoveto
          endchar
        </CharString>
        <CharString name="e">
          800 vmoveto
          endchar
        </CharString>
        <CharString name="eight">
          800 vmoveto
          endchar
        </CharString>
        <CharString name="equal">
          800 vmoveto
          endchar
        </CharString>
        <CharString name="exclam">
          800 vmoveto
          endchar
        </CharString>
        <CharString name="f">
          800 vmoveto
          endchar
        </CharString>
        <CharString name="five">
          800 vmoveto
          endchar
        </CharString>
        <CharString name="four">
          800 vmoveto
          endchar
        </CharString>
        <CharString name="g">
          800 vmoveto
          endchar
        </CharString>
        <CharString name="grave">
          800 vmoveto
          endchar
        </CharString>
        <CharString name="greater">
          800 vmoveto
          endchar
        </CharString>
        <CharString name="h">
          800 vmoveto
          endchar
        </CharString>
        <CharString name="hyphen">
          800 vmoveto
          endchar
        </CharString>
        <CharString name="i">
          800 vmoveto
          endchar
        </CharString>
        <CharString name="j">
          800 vmoveto
          endchar
        </CharString>
        <CharString name="k">
          800 vmoveto
          endchar
        </CharString>
        <CharString name="l">
          800 vmoveto
          endchar
        </CharString>
        <CharString name="less">
          800 vmoveto
          endchar
        </CharString>
        <CharString name="m">
          800 vmoveto
          endchar
        </CharString>
        <CharString name="n">
          800 vmoveto
          endchar
        </CharString>
        <CharString name="nine">
          800 vmoveto
          endchar
        </CharString>
        <CharString name="numbersign">
          800 vmoveto
          endchar
        </CharString>
        <CharString name="o">
          800 vmoveto
          endchar
        </CharString>
        <CharString name="one">
          800 vmoveto
          endchar
        </CharString>
        <CharString name="p">
          800 vmoveto
          endchar
        </CharString>
        <CharString name="parenleft">
          800 vmoveto
          endchar
        </CharString>
        <CharString name="parenright">
          800 vmoveto
          endchar
        </CharString>
        <CharString name="percent">
          800 vmoveto
          endchar
        </CharString>
        <CharString name="period">
          800 vmoveto
          endchar
        </CharString>
        <CharString name="plus">
          800 vmoveto
          endchar
        </CharString>
        <CharString name="q">
          800 vmoveto
          endchar
        </CharString>
        <CharString name="question">
          800 vmoveto
          endchar
        </CharString>
        <CharString name="quotedbl">
          800 vmoveto
          endchar
        </CharString>
        <CharString name="quotesingle">
          800 vmoveto
          endchar
        </CharString>
        <CharString name="r">
          800 vmoveto
          endchar
        </CharString>
        <CharString name="s">
          800 vmoveto
          endchar
        </CharString>
        <CharString name="semicolon">
          800 vmoveto
          endchar
        </CharString>
        <CharString name="seven">
          800 vmoveto
          endchar
        </CharString>
        <CharString name="six">
          800 vmoveto
          endchar
        </CharString>
        <CharString name="slash">
          800 vmoveto
          endchar
        </CharString>
        <CharString name="space">
          800 vmoveto
          endchar
        </CharString>
        <CharString name="t">
          800 vmoveto
          endchar
        </CharString>
        <CharString name="three">
          800 vmoveto
          endchar
        </CharString>
        <CharString name="two">
          800 vmoveto
          endchar
        </CharString>
        <CharString name="u">
          800 vmoveto
          endchar
        </CharString>
        <CharString name="underscore">
          800 vmoveto
          endchar
        </CharString>
        <CharString name="v">
          800 vmoveto
          endchar
        </CharString>
        <CharString name="w">
          800 vmoveto
          endchar
        </CharString>
        <CharString name="x">
          800 vmoveto
          endchar
        </CharString>
        <CharString name="y">
          800 vmoveto
          endchar
        </CharString>
        <CharString name="z">
          800 vmoveto
          endchar
        </CharString>
        <CharString name="zero">
          800 vmoveto
          endchar
        </CharString>
</ttFont>
